# xmcd
#
# Track frame offsets:
#	150
#	16726
#	30379
#	47714
#	61738
#	78582
#	94654
#	108480
#	123140
#	138208
#
# Disc length: 2007 seconds
# Revision: 0
# Processed by: cddbd v1.5.2PL0 Copyright (c) Steve Scherf et al.
# Submitted via: dBpowerAMP V12.0
#
DISCID=6f07d50a
DTITLE=Fabulous Ginn Sisters - You Can't Take A Bad Girl Home
DYEAR=2009
DGENRE=Undefined
TTITLE0=You Should've Known
TTITLE1=Hey Doll
TTITLE2=Dreams
TTITLE3=Baton Rouge
TTITLE4=Share Our Secrets
TTITLE5=Fireworks
TTITLE6=Can't Get Enough Of You
TTITLE7=I'll Miss You
TTITLE8=Heart And Bones
TTITLE9=Redhead Rosie
EXTD=
EXTT0=
EXTT1=
EXTT2=
EXTT3=
EXTT4=
EXTT5=
EXTT6=
EXTT7=
EXTT8=
EXTT9=
PLAYORDER=
